<svg width="32" height="32" viewBox="0 0 32 32" fill="none" xmlns="http://www.w3.org/2000/svg">
<path d="M2 2H0V30H2V32H30V30H32V2H30V0H2V2Z" fill="#4D4D4D"/>
<path d="M24 24V19.4286H21.7143V17.1429H19.4286V14.8571H17.1429V12.5714H14.8571V10.2857H12.5714V8H8V12.5714H10.2857V14.8571H12.5714V17.1429H14.8571V19.4286H17.1429V21.7143H19.4286V24H24Z" fill="#F53D3D"/>
<path d="M12.5714 24V21.7143H14.8571V19.4286V17.1429H12.5714H10.2857V19.4286H8V24H12.5714Z" fill="#F53D3D"/>
<path d="M19.4286 14.8571H21.7143V12.5714H24V8H19.4286V10.2857H17.1429V12.5714V14.8571H19.4286Z" fill="#F53D3D"/>
</svg>
